<svg width="24" height="19" viewBox="0 0 24 19" fill="none" xmlns="http://www.w3.org/2000/svg">
<path d="M3 0.125C2.20435 0.125 1.44129 0.45424 0.87868 1.04029C0.316071 1.62634 0 2.4212 0 3.25L0 15.75C0 16.5788 0.316071 17.3737 0.87868 17.9597C1.44129 18.5458 2.20435 18.875 3 18.875H21C21.7956 18.875 22.5587 18.5458 23.1213 17.9597C23.6839 17.3737 24 16.5788 24 15.75V3.25C24 2.4212 23.6839 1.62634 23.1213 1.04029C22.5587 0.45424 21.7956 0.125 21 0.125H3ZM22.5 3.25V11.0625H1.5V3.25C1.5 2.8356 1.65804 2.43817 1.93934 2.14515C2.22064 1.85212 2.60218 1.6875 3 1.6875H21C21.3978 1.6875 21.7794 1.85212 22.0607 2.14515C22.342 2.43817 22.5 2.8356 22.5 3.25ZM21 17.3125H3C2.60218 17.3125 2.22064 17.1479 1.93934 16.8549C1.65804 16.5618 1.5 16.1644 1.5 15.75V14.1875H22.5V15.75C22.5 16.1644 22.342 16.5618 22.0607 16.8549C21.7794 17.1479 21.3978 17.3125 21 17.3125Z" fill="#2C2D84"/>
</svg>
