<svg width="29" height="29" viewBox="0 0 29 29" fill="none" xmlns="http://www.w3.org/2000/svg">
<path d="M14.5 0.75C11.7805 0.75 9.12209 1.55642 6.86091 3.06729C4.59974 4.57816 2.83737 6.72562 1.79666 9.2381C0.755958 11.7506 0.483662 14.5153 1.01421 17.1825C1.54476 19.8497 2.85432 22.2997 4.77729 24.2227C6.70026 26.1457 9.15028 27.4553 11.8175 27.9858C14.4848 28.5163 17.2494 28.244 19.7619 27.2033C22.2744 26.1626 24.4218 24.4003 25.9327 22.1391C27.4436 19.8779 28.25 17.2195 28.25 14.5C28.25 12.6943 27.8944 10.9063 27.2033 9.2381C26.5123 7.56988 25.4995 6.05409 24.2227 4.77728C22.9459 3.50048 21.4301 2.48766 19.7619 1.79666C18.0937 1.10565 16.3057 0.75 14.5 0.75ZM15.875 20C15.875 20.3647 15.7301 20.7144 15.4723 20.9723C15.2144 21.2301 14.8647 21.375 14.5 21.375C14.1353 21.375 13.7856 21.2301 13.5277 20.9723C13.2699 20.7144 13.125 20.3647 13.125 20V13.125C13.125 12.7603 13.2699 12.4106 13.5277 12.1527C13.7856 11.8949 14.1353 11.75 14.5 11.75C14.8647 11.75 15.2144 11.8949 15.4723 12.1527C15.7301 12.4106 15.875 12.7603 15.875 13.125V20ZM14.5 10.375C14.2281 10.375 13.9622 10.2944 13.7361 10.1433C13.51 9.99218 13.3337 9.77744 13.2297 9.52619C13.1256 9.27494 13.0984 8.99848 13.1514 8.73175C13.2045 8.46503 13.3354 8.22003 13.5277 8.02773C13.72 7.83543 13.965 7.70447 14.2318 7.65142C14.4985 7.59837 14.7749 7.6256 15.0262 7.72967C15.2774 7.83374 15.4922 8.00997 15.6433 8.23609C15.7944 8.46221 15.875 8.72805 15.875 9C15.875 9.36467 15.7301 9.71441 15.4723 9.97227C15.2144 10.2301 14.8647 10.375 14.5 10.375Z" fill="#2C2D84"/>
</svg>
