<svg width="22" height="23" viewBox="0 0 22 23" fill="none" xmlns="http://www.w3.org/2000/svg">
<path d="M11.3125 0.555665C8.52773 0.555665 5.85701 1.70288 3.88788 3.74495C1.91875 5.78701 0.8125 8.55664 0.8125 11.4446C0.8125 11.7946 0.8125 12.1368 0.865 12.479C1.05827 14.5792 1.8357 16.5759 3.10279 18.2265C4.36988 19.8771 6.07205 21.1104 8.00238 21.7765C9.93272 22.4426 12.0081 22.5128 13.9762 21.9786C15.9443 21.4444 17.7203 20.3288 19.0885 18.7674C20.4566 17.206 21.3579 15.266 21.6828 13.1834C22.0076 11.1007 21.7421 8.965 20.9184 7.03591C20.0947 5.10682 18.7484 3.46741 17.0431 2.31699C15.3378 1.16656 13.3469 0.554658 11.3125 0.555665ZM11.3125 2.11122C13.684 2.11336 15.9588 3.08605 17.6425 4.81789V5.59566C14.6782 4.53775 11.4559 4.55145 8.5 5.63455C8.26387 5.39593 7.96745 5.23145 7.645 5.16011H7.4575C7.3675 4.83344 7.285 4.50678 7.2175 4.17233C7.15 3.83789 7.1125 3.54233 7.075 3.22344C8.377 2.49479 9.83302 2.11263 11.3125 2.11122ZM9.0625 6.67678C11.7863 5.73089 14.7382 5.76652 17.44 6.77789C17.0746 8.75391 16.2766 10.6166 15.1075 12.2223C14.7805 12.0787 14.4185 12.0442 14.0718 12.1237C13.725 12.2031 13.4107 12.3926 13.1725 12.6657C12.91 12.5101 12.6475 12.3546 12.4225 12.1757C10.9085 11.1281 9.64408 9.73706 8.725 8.10789C8.87354 7.91687 8.98169 7.6956 9.04242 7.45843C9.10315 7.22126 9.1151 6.97349 9.0775 6.73122L9.0625 6.67678ZM6.0625 3.87678C6.0625 4.04011 6.1075 4.21122 6.1375 4.37455C6.205 4.71678 6.295 5.05122 6.385 5.38567C6.0978 5.56203 5.86665 5.82171 5.72005 6.13267C5.57345 6.44364 5.51782 6.7923 5.56 7.13567C4.37613 7.93739 3.31868 8.92382 2.425 10.0601C2.60432 8.82948 3.01917 7.64847 3.64515 6.58658C4.27113 5.52468 5.09558 4.60334 6.07 3.87678H6.0625ZM6.0625 16.0957C5.76972 16.1976 5.50806 16.3778 5.30395 16.6182C5.09983 16.8585 4.96049 17.1505 4.9 17.4646H4.42C3.2088 15.9664 2.4844 14.1101 2.35 12.1601L2.4325 12.0123C3.37166 10.5022 4.59945 9.20772 6.04 8.209C6.25598 8.44292 6.52892 8.61195 6.82993 8.6982C7.13095 8.78446 7.44885 8.78473 7.75 8.699C8.75317 10.457 10.1244 11.9588 11.7625 13.0934C12.07 13.3034 12.385 13.4979 12.7 13.6846C12.6748 13.982 12.7212 14.2814 12.835 14.5557C11.4625 15.6859 9.87929 16.5095 8.185 16.9746C7.98852 16.5939 7.66792 16.298 7.28048 16.1398C6.89303 15.9817 6.46399 15.9715 6.07 16.1112L6.0625 16.0957ZM11.3125 20.7623C9.78717 20.7628 8.2871 20.3585 6.955 19.5879L7.165 19.5412C7.46345 19.4397 7.73014 19.2569 7.93726 19.012C8.14438 18.7671 8.28433 18.4691 8.3425 18.149C10.2602 17.6418 12.0506 16.7135 13.5925 15.4268C13.9588 15.6488 14.3913 15.7223 14.8067 15.6333C15.2221 15.5442 15.5911 15.2989 15.8425 14.9446C16.9007 15.2298 17.9892 15.3762 19.0825 15.3801H19.48C18.7564 16.9937 17.6032 18.3591 16.1561 19.3155C14.709 20.2718 13.0284 20.7792 11.3125 20.7779V20.7623ZM16.195 13.8401C16.1943 13.5141 16.1088 13.1944 15.9475 12.9146C17.1957 11.2238 18.0643 9.26544 18.49 7.18233C18.865 7.36381 19.235 7.56604 19.6 7.789C20.4249 9.81038 20.5364 12.0686 19.915 14.1668C18.6698 14.2666 17.4172 14.1643 16.2025 13.8634L16.195 13.8401Z" fill="#2C2D84"/>
</svg>
