<svg width="23" height="29" viewBox="0 0 23 29" fill="none" xmlns="http://www.w3.org/2000/svg">
<path d="M11.5 9V0.75H3.25C2.52065 0.75 1.82118 1.03973 1.30546 1.55546C0.789731 2.07118 0.5 2.77065 0.5 3.5V25.5C0.5 26.2293 0.789731 26.9288 1.30546 27.4445C1.82118 27.9603 2.52065 28.25 3.25 28.25H19.75C20.4793 28.25 21.1788 27.9603 21.6945 27.4445C22.2103 26.9288 22.5 26.2293 22.5 25.5V11.75H14.25C13.5207 11.75 12.8212 11.4603 12.3055 10.9445C11.7897 10.4288 11.5 9.72935 11.5 9ZM4.625 14.8438C4.625 14.5702 4.73365 14.3079 4.92705 14.1145C5.12044 13.9212 5.38275 13.8125 5.65625 13.8125C5.92975 13.8125 6.19206 13.9212 6.38545 14.1145C6.57885 14.3079 6.6875 14.5702 6.6875 14.8438C6.6875 15.1173 6.57885 15.3796 6.38545 15.573C6.19206 15.7663 5.92975 15.875 5.65625 15.875C5.38275 15.875 5.12044 15.7663 4.92705 15.573C4.73365 15.3796 4.625 15.1173 4.625 14.8438ZM4.625 18.9688C4.625 18.6952 4.73365 18.4329 4.92705 18.2395C5.12044 18.0462 5.38275 17.9375 5.65625 17.9375C5.92975 17.9375 6.19206 18.0462 6.38545 18.2395C6.57885 18.4329 6.6875 18.6952 6.6875 18.9688C6.6875 19.2423 6.57885 19.5046 6.38545 19.698C6.19206 19.8913 5.92975 20 5.65625 20C5.38275 20 5.12044 19.8913 4.92705 19.698C4.73365 19.5046 4.625 19.2423 4.625 18.9688ZM4.625 23.0938C4.625 22.8202 4.73365 22.5579 4.92705 22.3645C5.12044 22.1711 5.38275 22.0625 5.65625 22.0625C5.92975 22.0625 6.19206 22.1711 6.38545 22.3645C6.57885 22.5579 6.6875 22.8202 6.6875 23.0938C6.6875 23.3673 6.57885 23.6296 6.38545 23.823C6.19206 24.0164 5.92975 24.125 5.65625 24.125C5.38275 24.125 5.12044 24.0164 4.92705 23.823C4.73365 23.6296 4.625 23.3673 4.625 23.0938ZM8.75 14.8438C8.75 14.5702 8.85865 14.3079 9.05205 14.1145C9.24544 13.9212 9.50775 13.8125 9.78125 13.8125H17.3438C17.6173 13.8125 17.8796 13.9212 18.073 14.1145C18.2664 14.3079 18.375 14.5702 18.375 14.8438C18.375 15.1173 18.2664 15.3796 18.073 15.573C17.8796 15.7663 17.6173 15.875 17.3438 15.875H9.78125C9.50775 15.875 9.24544 15.7663 9.05205 15.573C8.85865 15.3796 8.75 15.1173 8.75 14.8438ZM8.75 18.9688C8.75 18.6952 8.85865 18.4329 9.05205 18.2395C9.24544 18.0462 9.50775 17.9375 9.78125 17.9375H17.3438C17.6173 17.9375 17.8796 18.0462 18.073 18.2395C18.2664 18.4329 18.375 18.6952 18.375 18.9688C18.375 19.2423 18.2664 19.5046 18.073 19.698C17.8796 19.8913 17.6173 20 17.3438 20H9.78125C9.50775 20 9.24544 19.8913 9.05205 19.698C8.85865 19.5046 8.75 19.2423 8.75 18.9688ZM8.75 23.0938C8.75 22.8202 8.85865 22.5579 9.05205 22.3645C9.24544 22.1711 9.50775 22.0625 9.78125 22.0625H17.3438C17.6173 22.0625 17.8796 22.1711 18.073 22.3645C18.2664 22.5579 18.375 22.8202 18.375 23.0938C18.375 23.3673 18.2664 23.6296 18.073 23.823C17.8796 24.0164 17.6173 24.125 17.3438 24.125H9.78125C9.50775 24.125 9.24544 24.0164 9.05205 23.823C8.85865 23.6296 8.75 23.3673 8.75 23.0938ZM13.5625 9V1.4375L21.8125 9.6875H14.25C14.0677 9.6875 13.8928 9.61507 13.7639 9.48614C13.6349 9.35721 13.5625 9.18234 13.5625 9Z" fill="#2C2D84"/>
</svg>
