<svg width="15" height="19" viewBox="0 0 15 19" fill="none" xmlns="http://www.w3.org/2000/svg">
<path d="M6.84375 17.3752H2.25V1.62522H7.5V5.56272C7.50104 5.9105 7.63965 6.24374 7.88557 6.48965C8.13149 6.73557 8.46472 6.87418 8.8125 6.87522H12.75V10.8127H14.0625V5.56272C14.0648 5.47648 14.0484 5.39075 14.0144 5.31145C13.9804 5.23215 13.9297 5.16115 13.8656 5.10335L9.27188 0.509598C9.2141 0.445512 9.14311 0.394722 9.0638 0.360732C8.98449 0.326743 8.89875 0.310363 8.8125 0.312723H2.25C1.90222 0.313762 1.56899 0.452376 1.32307 0.698293C1.07715 0.94421 0.938539 1.27745 0.9375 1.62522V17.3752C0.938539 17.723 1.07715 18.0562 1.32307 18.3022C1.56899 18.5481 1.90222 18.6867 2.25 18.6877H6.84375V17.3752ZM8.8125 1.88772L12.4875 5.56272H8.8125V1.88772Z" fill="#2C2D84"/>
</svg>
