<svg width="28" height="28" viewBox="0 0 28 28" fill="none" xmlns="http://www.w3.org/2000/svg">
<path d="M26 0H2C1.46957 0 0.960859 0.210714 0.585786 0.585786C0.210714 0.960859 0 1.46957 0 2V26C0 26.5304 0.210714 27.0391 0.585786 27.4142C0.960859 27.7893 1.46957 28 2 28H26C26.5304 28 27.0391 27.7893 27.4142 27.4142C27.7893 27.0391 28 26.5304 28 26V2C28 1.46957 27.7893 0.960859 27.4142 0.585786C27.0391 0.210714 26.5304 0 26 0ZM18 21L16.586 19.586L21.172 15H4V13H21.172L16.586 8.414L18 7L25 14L18 21Z" fill="#2C2D84"/>
</svg>
