<svg width="28" height="27" viewBox="0 0 28 27" fill="none" xmlns="http://www.w3.org/2000/svg">
<path d="M25.0274 5.07438H19.9108V4.02093C19.9099 3.18305 19.5862 2.37975 19.0108 1.78728C18.4354 1.1948 17.6553 0.861537 16.8415 0.860596H10.7028C9.88909 0.861537 9.10893 1.1948 8.53351 1.78728C7.9581 2.37975 7.63443 3.18305 7.63352 4.02093V5.07438H2.519C1.97649 5.075 1.45638 5.29718 1.07277 5.69216C0.689166 6.08715 0.473388 6.62268 0.472778 7.18127V24.0364C0.473388 24.595 0.689166 25.1305 1.07277 25.5255C1.45638 25.9205 1.97649 26.1427 2.519 26.1433H25.0274C25.5699 26.1427 26.09 25.9205 26.4736 25.5255C26.8572 25.1305 27.073 24.595 27.0736 24.0364V7.18127C27.073 6.62268 26.8572 6.08715 26.4736 5.69216C26.09 5.29718 25.5699 5.075 25.0274 5.07438V5.07438ZM9.67974 4.02093C9.68008 3.74165 9.78798 3.4739 9.97977 3.27642C10.1716 3.07893 10.4316 2.96783 10.7028 2.96749H16.8415C17.1127 2.96783 17.3728 3.07893 17.5646 3.27642C17.7564 3.4739 17.8643 3.74165 17.8646 4.02093V5.07438H9.67974V4.02093ZM17.8646 7.18127V24.0364H9.67974V7.18127H17.8646ZM2.519 7.18127H7.63352V24.0364H2.519V7.18127ZM25.0274 24.0364H19.9108V7.18127H25.0274L25.0287 24.0364H25.0274Z" fill="#2C2D84"/>
</svg>
