<svg width="34" height="30" viewBox="0 0 34 30" fill="none" xmlns="http://www.w3.org/2000/svg">
<path d="M17.6077 0.947578C17.4141 0.793747 17.1755 0.710205 16.93 0.710205C16.6845 0.710205 16.4459 0.793747 16.2523 0.947578L0.570068 13.4072L1.92657 15.1552L3.84402 13.6318V27.3969C3.84517 27.9864 4.0755 28.5513 4.48457 28.9682C4.89364 29.385 5.44814 29.6197 6.02665 29.6208H27.853C28.4315 29.6197 28.986 29.385 29.3951 28.9682C29.8041 28.5513 30.0345 27.9864 30.0356 27.3969V13.6418L31.9531 15.1652L33.3096 13.4172L17.6077 0.947578ZM19.1225 27.3969H14.7572V18.5011H19.1225V27.3969ZM21.3051 27.3969V18.5011C21.3045 17.9115 21.0744 17.3462 20.6652 16.9292C20.256 16.5123 19.7011 16.2778 19.1225 16.2772H14.7572C14.1785 16.2778 13.6237 16.5123 13.2145 16.9292C12.8053 17.3462 12.5751 17.9115 12.5746 18.5011V27.3969H6.02665V11.8983L16.9398 3.23601L27.853 11.9094V27.3969H21.3051Z" fill="#2C2D84"/>
</svg>
