<svg width="21" height="18" viewBox="0 0 21 18" fill="none" xmlns="http://www.w3.org/2000/svg">
<path d="M10.9284 0.14779C10.8042 0.0520139 10.6512 0 10.4937 0C10.3362 0 10.1832 0.0520139 10.059 0.14779L0 7.90526L0.8701 8.99359L2.1 8.04511V16.6154C2.10074 16.9824 2.24848 17.3341 2.51087 17.5936C2.77326 17.8532 3.12892 17.9993 3.5 18H17.5C17.8711 17.9993 18.2267 17.8532 18.4891 17.5936C18.7515 17.3341 18.8993 16.9824 18.9 16.6154V8.05134L20.1299 8.99982L21 7.91149L10.9284 0.14779ZM11.9 16.6154H9.1V11.0768H11.9V16.6154ZM13.3 16.6154V11.0768C13.2996 10.7097 13.152 10.3577 12.8895 10.0981C12.6271 9.8385 12.2712 9.69251 11.9 9.69214H9.1C8.72881 9.69251 8.37293 9.8385 8.11046 10.0981C7.84799 10.3577 7.70037 10.7097 7.7 11.0768V16.6154H3.5V6.96578L10.5 1.57259L17.5 6.9727V16.6154H13.3Z" fill="#2C2D84"/>
</svg>
