<svg width="28" height="22" viewBox="0 0 28 22" fill="none" xmlns="http://www.w3.org/2000/svg">
<path d="M11.5952 4.94696C11.0578 4.94696 10.5257 5.05595 10.0291 5.26772C9.53262 5.47948 9.08147 5.78986 8.70145 6.18115C8.32144 6.57243 8.01999 7.03696 7.81433 7.5482C7.60866 8.05944 7.50281 8.60738 7.50281 9.16074C7.50281 9.7141 7.60866 10.262 7.81433 10.7733C8.01999 11.2845 8.32144 11.749 8.70145 12.1403C9.08147 12.5316 9.53262 12.842 10.0291 13.0538C10.5257 13.2655 11.0578 13.3745 11.5952 13.3745C12.6806 13.3745 13.7216 12.9306 14.489 12.1403C15.2565 11.3501 15.6877 10.2783 15.6877 9.16074C15.6877 8.04318 15.2565 6.97138 14.489 6.18115C13.7216 5.39091 12.6806 4.94696 11.5952 4.94696V4.94696ZM9.54903 9.16074C9.54903 8.60196 9.76461 8.06606 10.1483 7.67094C10.5321 7.27583 11.0526 7.05385 11.5952 7.05385C12.1379 7.05385 12.6584 7.27583 13.0421 7.67094C13.4259 8.06606 13.6415 8.60196 13.6415 9.16074C13.6415 9.71952 13.4259 10.2554 13.0421 10.6505C12.6584 11.0457 12.1379 11.2676 11.5952 11.2676C11.0526 11.2676 10.5321 11.0457 10.1483 10.6505C9.76461 10.2554 9.54903 9.71952 9.54903 9.16074Z" fill="#2C2D84"/>
<path d="M0 3.89349C0 3.05532 0.323375 2.25147 0.898985 1.6588C1.4746 1.06612 2.25529 0.733154 3.06933 0.733154H20.1211C20.5242 0.733154 20.9233 0.814898 21.2957 0.97372C21.6681 1.13254 22.0065 1.36533 22.2915 1.6588C22.5765 1.95226 22.8026 2.30065 22.9568 2.68408C23.1111 3.06751 23.1905 3.47847 23.1905 3.89349V14.4279C23.1905 14.843 23.1111 15.2539 22.9568 15.6373C22.8026 16.0208 22.5765 16.3692 22.2915 16.6626C22.0065 16.9561 21.6681 17.1889 21.2957 17.3477C20.9233 17.5065 20.5242 17.5883 20.1211 17.5883H3.06933C2.25529 17.5883 1.4746 17.2553 0.898985 16.6626C0.323375 16.07 0 15.2661 0 14.4279V3.89349ZM3.06933 2.84004C2.79798 2.84004 2.53775 2.95103 2.34588 3.14859C2.15401 3.34615 2.04622 3.6141 2.04622 3.89349V4.94694H3.06933C3.34067 4.94694 3.60091 4.83595 3.79278 4.63839C3.98465 4.44083 4.09244 4.17288 4.09244 3.89349V2.84004H3.06933ZM2.04622 11.2676H3.06933C3.88336 11.2676 4.66406 11.6006 5.23967 12.1932C5.81528 12.7859 6.13866 13.5898 6.13866 14.4279V15.4814H17.0518V14.4279C17.0518 13.5898 17.3752 12.7859 17.9508 12.1932C18.5264 11.6006 19.3071 11.2676 20.1211 11.2676H21.1443V7.05383H20.1211C19.3071 7.05383 18.5264 6.72086 17.9508 6.12818C17.3752 5.53551 17.0518 4.73166 17.0518 3.89349V2.84004H6.13866V3.89349C6.13866 4.30851 6.05927 4.71947 5.90502 5.1029C5.75077 5.48633 5.52468 5.83472 5.23967 6.12818C4.95466 6.42165 4.6163 6.65444 4.24391 6.81326C3.87152 6.97208 3.4724 7.05383 3.06933 7.05383H2.04622V11.2676ZM21.1443 4.94694V3.89349C21.1443 3.6141 21.0365 3.34615 20.8446 3.14859C20.6527 2.95103 20.3925 2.84004 20.1211 2.84004H19.098V3.89349C19.098 4.47499 19.5564 4.94694 20.1211 4.94694H21.1443ZM21.1443 13.3745H20.1211C19.8498 13.3745 19.5896 13.4855 19.3977 13.683C19.2058 13.8806 19.098 14.1486 19.098 14.4279V15.4814H20.1211C20.3925 15.4814 20.6527 15.3704 20.8446 15.1728C21.0365 14.9753 21.1443 14.7073 21.1443 14.4279V13.3745ZM2.04622 14.4279C2.04622 15.0094 2.50457 15.4814 3.06933 15.4814H4.09244V14.4279C4.09244 14.1486 3.98465 13.8806 3.79278 13.683C3.60091 13.4855 3.34067 13.3745 3.06933 13.3745H2.04622V14.4279Z" fill="#2C2D84"/>
<path d="M3.27527 19.6951C3.63446 20.336 4.15125 20.8681 4.77364 21.238C5.39604 21.6078 6.10207 21.8024 6.82068 21.802H20.8032C21.6541 21.802 22.4967 21.6294 23.2828 21.2941C24.069 20.9589 24.7833 20.4674 25.385 19.8479C25.9867 19.2283 26.464 18.4928 26.7896 17.6834C27.1153 16.8739 27.2829 16.0063 27.2829 15.1302V7.75607C27.2829 6.19697 26.4603 4.83451 25.2366 4.10553V15.1302C25.2366 16.3409 24.7696 17.502 23.9381 18.3581C23.1067 19.2142 21.979 19.6951 20.8032 19.6951H3.27527Z" fill="#2C2D84"/>
</svg>
