<svg width="12" height="21" viewBox="0 0 12 21" fill="none" xmlns="http://www.w3.org/2000/svg">
<path d="M9.69231 0H2.30769C1.69565 0 1.10868 0.25142 0.675907 0.69895C0.243131 1.14648 0 1.75346 0 2.38636V18.6136C0 19.2465 0.243131 19.8535 0.675907 20.3011C1.10868 20.7486 1.69565 21 2.30769 21H9.69231C10.3043 21 10.8913 20.7486 11.3241 20.3011C11.7569 19.8535 12 19.2465 12 18.6136V2.38636C12 1.75346 11.7569 1.14648 11.3241 0.69895C10.8913 0.25142 10.3043 0 9.69231 0ZM6 20.0455C5.23385 20.0455 4.61538 19.4059 4.61538 18.6136C4.61538 17.8214 5.23385 17.1818 6 17.1818C6.76615 17.1818 7.38462 17.8214 7.38462 18.6136C7.38462 19.4059 6.76615 20.0455 6 20.0455ZM10.1538 16.2273H1.84615V2.86364H10.1538V16.2273Z" fill="#2C2D84"/>
</svg>
